<?xml version="1.0" standalone="no"?>
<!DOCTYPE svg PUBLIC "-//W3C//DTD SVG 20010904//EN"
 "http://www.w3.org/TR/2001/REC-SVG-20010904/DTD/svg10.dtd">
<svg version="1.0" xmlns="http://www.w3.org/2000/svg"
 width="642.000000pt" height="642.000000pt" viewBox="0 0 642.000000 642.000000"
 preserveAspectRatio="xMidYMid meet">
<metadata>
Created by potrace 1.11, written by Peter Selinger 2001-2013
</metadata>
<g transform="translate(0.000000,642.000000) scale(0.100000,-0.100000)"
fill="#000000" stroke="none">
<path d="M3124 6326 c-48 -22 -69 -46 -269 -307 -438 -571 -747 -922 -1221
-1389 -451 -444 -929 -845 -1369 -1147 -150 -103 -201 -148 -224 -195 -29 -60
-27 -110 6 -170 23 -42 49 -66 163 -146 1018 -720 1920 -1598 2621 -2547 41
-56 97 -136 124 -178 94 -147 107 -161 160 -179 68 -23 142 -23 181 1 36 22
27 11 247 306 587 788 1288 1512 2082 2151 234 188 500 385 610 451 124 74
165 126 165 207 -1 85 -55 177 -124 210 -18 8 -115 74 -215 145 -405 290 -765
588 -1148 951 -158 150 -667 679 -797 829 -221 255 -482 585 -649 821 -86 122
-110 150 -157 177 -66 40 -114 42 -186 9z m152 -797 c76 -14 163 -51 244 -103
92 -60 394 -304 528 -427 62 -57 127 -114 143 -126 63 -45 332 -309 501 -490
287 -307 530 -598 728 -873 144 -200 175 -299 130 -420 -84 -225 -414 -633
-935 -1156 -176 -177 -373 -369 -437 -427 -299 -269 -652 -542 -787 -610 -79
-39 -90 -42 -166 -42 -73 0 -88 4 -146 33 -138 72 -371 239 -559 401 -345 298
-830 763 -1055 1011 -207 228 -426 504 -542 681 -140 215 -96 347 266 789 240
293 701 769 1071 1105 266 241 681 569 793 627 69 35 136 43 223 27z"/>
<path d="M3095 5352 c-108 -60 -484 -349 -710 -547 -440 -383 -920 -892 -1230
-1300 -122 -161 -148 -214 -148 -307 0 -95 42 -175 190 -362 487 -616 1101
-1217 1727 -1691 185 -140 246 -161 366 -131 78 20 141 58 301 180 68 53 147
113 174 133 274 207 987 900 1222 1189 230 282 281 348 343 441 79 118 95 162
86 251 -7 84 -27 125 -131 270 -360 502 -867 1033 -1467 1534 -225 189 -366
293 -453 334 -60 29 -80 34 -145 34 -63 0 -83 -5 -125 -28z m218 -742 c58
-162 141 -390 185 -507 l79 -211 -30 -6 c-16 -3 -74 -6 -128 -6 l-99 0 1 -82
c0 -46 8 -261 18 -478 10 -217 14 -399 9 -405 -10 -12 -286 -11 -298 1 -4 5 0
187 11 409 10 220 18 435 19 478 l0 77 -109 0 c-61 0 -112 3 -114 8 -2 4 56
178 129 387 74 209 152 438 175 508 22 71 42 127 44 125 2 -1 50 -136 108
-298z m-767 -948 c21 -15 82 -54 134 -86 52 -33 101 -64 108 -71 10 -9 -10
-18 -90 -39 -198 -52 -346 -144 -398 -247 -25 -49 -25 -55 6 -117 48 -96 188
-163 454 -216 175 -35 293 -46 487 -46 542 0 1003 159 1003 345 0 24 -5 56
-11 72 -22 59 -101 120 -209 163 -51 20 -56 20 -124 6 -39 -9 -81 -18 -93 -22
-16 -4 -23 -2 -23 7 -1 8 -20 67 -44 132 -24 64 -40 117 -37 117 4 0 103 -24
221 -54 118 -30 248 -60 289 -67 78 -13 78 -18 -6 -39 -24 -6 -43 -14 -43 -18
0 -5 19 -17 43 -29 64 -31 161 -108 190 -150 54 -78 60 -130 24 -208 -84 -180
-414 -311 -927 -371 -198 -22 -598 -15 -780 15 -490 79 -819 231 -886 408 -15
39 -16 53 -6 102 14 66 65 145 127 196 131 106 421 241 526 244 14 1 44 -12
65 -27z m825 -1078 c13 -116 43 -914 35 -921 -8 -9 -403 -9 -411 -1 -3 3 -1
74 4 159 6 85 15 296 21 469 6 173 13 324 15 335 4 20 11 20 167 20 l163 -1 6
-60z"/>
</g>
</svg>
